<svg width="30" height="30" viewBox="0 0 30 30" fill="none" xmlns="http://www.w3.org/2000/svg">
<g filter="url(#filter0_i_2_2307)">
<rect width="30" height="30" rx="5" fill="white"/>
</g>
<path d="M8.87462 18.4956C8.87537 18.8627 8.95367 19.2256 9.10439 19.5605C9.25511 19.8953 9.47485 20.1945 9.74923 20.4386V21.5567C9.74923 21.6727 9.79531 21.7839 9.87732 21.8659C9.95933 21.9479 10.0706 21.994 10.1865 21.994H11.0612C11.1771 21.994 11.2884 21.9479 11.3704 21.8659C11.4524 21.7839 11.4985 21.6727 11.4985 21.5567V21.1194H18.4954V21.5567C18.4954 21.6727 18.5415 21.7839 18.6235 21.8659C18.7055 21.9479 18.8167 21.994 18.9327 21.994H19.8073C19.9233 21.994 20.0345 21.9479 20.1165 21.8659C20.1986 21.7839 20.2446 21.6727 20.2446 21.5567V20.4386C20.519 20.1945 20.7388 19.8953 20.8895 19.5605C21.0402 19.2256 21.1185 18.8627 21.1192 18.4956V17.1836H8.87462V18.4956ZM21.5566 14.9971H10.1865V9.89288C10.1868 9.77811 10.221 9.66598 10.2849 9.57063C10.3488 9.47529 10.4395 9.40101 10.5456 9.35716C10.6517 9.3133 10.7683 9.30184 10.8809 9.32422C10.9935 9.3466 11.0969 9.40182 11.1781 9.48291L11.7048 10.0093C11.346 10.826 11.4968 11.6249 11.9404 12.1885L11.9358 12.1931C11.8541 12.2751 11.8082 12.3861 11.8082 12.5018C11.8082 12.6176 11.8541 12.7286 11.9358 12.8105L12.2449 13.1197C12.2855 13.1603 12.3337 13.1925 12.3868 13.2145C12.4398 13.2365 12.4967 13.2478 12.5542 13.2478C12.6116 13.2478 12.6685 13.2365 12.7215 13.2145C12.7746 13.1925 12.8228 13.1603 12.8634 13.1197L15.7434 10.2397C15.784 10.1991 15.8162 10.1509 15.8382 10.0978C15.8602 10.0448 15.8715 9.9879 15.8715 9.93046C15.8715 9.87303 15.8602 9.81615 15.8382 9.76309C15.8162 9.71003 15.784 9.66181 15.7434 9.6212L15.4342 9.31208C15.3522 9.23013 15.241 9.1841 15.1251 9.1841C15.0092 9.1841 14.898 9.23013 14.816 9.31208L14.8113 9.31673C14.2478 8.87313 13.4494 8.72226 12.6322 9.08113L12.1058 8.55445C11.8411 8.28971 11.5038 8.10942 11.1366 8.03638C10.7695 7.96333 10.3889 8.00082 10.043 8.14408C9.69714 8.28735 9.40152 8.52997 9.19355 8.84126C8.98558 9.15254 8.87459 9.51851 8.87462 9.89288V14.9971H8.43731C8.32133 14.9971 8.2101 15.0432 8.12808 15.1252C8.04607 15.2072 8 15.3184 8 15.4344V15.8717C8 15.9877 8.04607 16.0989 8.12808 16.1809C8.2101 16.2629 8.32133 16.309 8.43731 16.309H21.5566C21.6725 16.309 21.7838 16.2629 21.8658 16.1809C21.9478 16.0989 21.9939 15.9877 21.9939 15.8717V15.4344C21.9939 15.3184 21.9478 15.2072 21.8658 15.1252C21.7838 15.0432 21.6725 14.9971 21.5566 14.9971Z" fill="#62AC43"/>
<defs>
<filter id="filter0_i_2_2307" x="0" y="0" width="30" height="30" filterUnits="userSpaceOnUse" color-interpolation-filters="sRGB">
<feFlood flood-opacity="0" result="BackgroundImageFix"/>
<feBlend mode="normal" in="SourceGraphic" in2="BackgroundImageFix" result="shape"/>
<feColorMatrix in="SourceAlpha" type="matrix" values="0 0 0 0 0 0 0 0 0 0 0 0 0 0 0 0 0 0 127 0" result="hardAlpha"/>
<feOffset/>
<feGaussianBlur stdDeviation="2"/>
<feComposite in2="hardAlpha" operator="arithmetic" k2="-1" k3="1"/>
<feColorMatrix type="matrix" values="0 0 0 0 0 0 0 0 0 0 0 0 0 0 0 0 0 0 0.1 0"/>
<feBlend mode="normal" in2="shape" result="effect1_innerShadow_2_2307"/>
</filter>
</defs>
</svg>
