<svg width="30" height="30" viewBox="0 0 30 30" fill="none" xmlns="http://www.w3.org/2000/svg">
<g filter="url(#filter0_i_2_2295)">
<rect width="30" height="30" rx="5" fill="white"/>
</g>
<path d="M11.6667 15C12.5856 15 13.3333 14.2523 13.3333 13.3333C13.3333 12.4144 12.5856 11.6667 11.6667 11.6667C10.7477 11.6667 10 12.4144 10 13.3333C10 14.2523 10.7477 15 11.6667 15ZM19 12.3333H14.3333C14.1492 12.3333 14 12.4825 14 12.6667V15.6667H9.33333V11.3333C9.33333 11.1492 9.18417 11 9 11H8.33333C8.14917 11 8 11.1492 8 11.3333V18.6667C8 18.8508 8.14917 19 8.33333 19H9C9.18417 19 9.33333 18.8508 9.33333 18.6667V17.6667H20V18.6667C20 18.8508 20.1492 19 20.3333 19H21C21.1842 19 21.3333 18.8508 21.3333 18.6667V14.6667C21.3333 13.3779 20.2888 12.3333 19 12.3333Z" fill="#62AC43"/>
<defs>
<filter id="filter0_i_2_2295" x="0" y="0" width="30" height="30" filterUnits="userSpaceOnUse" color-interpolation-filters="sRGB">
<feFlood flood-opacity="0" result="BackgroundImageFix"/>
<feBlend mode="normal" in="SourceGraphic" in2="BackgroundImageFix" result="shape"/>
<feColorMatrix in="SourceAlpha" type="matrix" values="0 0 0 0 0 0 0 0 0 0 0 0 0 0 0 0 0 0 127 0" result="hardAlpha"/>
<feOffset/>
<feGaussianBlur stdDeviation="2"/>
<feComposite in2="hardAlpha" operator="arithmetic" k2="-1" k3="1"/>
<feColorMatrix type="matrix" values="0 0 0 0 0 0 0 0 0 0 0 0 0 0 0 0 0 0 0.1 0"/>
<feBlend mode="normal" in2="shape" result="effect1_innerShadow_2_2295"/>
</filter>
</defs>
</svg>
