<svg width="120" height="26" viewBox="0 0 120 26" fill="none" xmlns="http://www.w3.org/2000/svg">
<path d="M11.6685 8.69545C11.5144 8.54128 11.3294 8.41794 11.1443 8.32543C11.8535 7.46206 12.2236 6.35201 12.2236 5.21112C12.2236 3.70022 11.5452 2.28182 10.3735 1.32594C9.44844 0.555076 8.27672 0.185059 6.73498 0.185059H0.32135V5.21112V7.43123V10.2064V13.074V18.7476H7.53668C9.29426 18.7476 10.6202 18.3467 11.6377 17.4834C12.9636 16.4041 13.7345 14.8007 13.7345 13.1048C13.7653 11.3781 12.9944 9.77467 11.6685 8.69545ZM3.52816 3.17603H6.14912C7.62919 3.17603 8.12254 3.48438 8.40005 3.82356C8.73924 4.19358 8.95508 4.68693 8.95508 5.21112C8.95508 5.73531 8.77007 6.19783 8.40005 6.59869C8.09171 6.93787 7.62919 7.24622 6.14912 7.24622H3.52816V3.17603ZM9.72595 14.8932C9.29426 15.3249 8.64673 15.7258 6.95082 15.7258H3.52816V10.268H6.98166C8.67757 10.268 9.29426 10.6689 9.72595 11.1006C10.2193 11.6248 10.4968 12.3031 10.4968 12.9815C10.4968 13.6907 10.2193 14.369 9.72595 14.8932Z" fill="#313131"/>
<path d="M27.2092 6.07446H24.1874V18.7475H27.2092V6.07446Z" fill="#313131"/>
<path d="M25.6676 0.154175C24.6192 0.154175 23.7867 0.986713 23.7867 2.06593C23.7867 3.11431 24.6192 3.94685 25.6676 3.94685C26.7468 3.94685 27.5794 3.11431 27.5794 2.06593C27.5794 1.01755 26.716 0.154175 25.6676 0.154175Z" fill="#313131"/>
<path d="M38.5873 6.90698C37.5698 6.19778 36.3981 5.82776 35.0722 5.82776C33.9313 5.82776 32.8521 6.10527 31.9579 6.62946C29.9536 7.80118 28.7202 10.0213 28.7202 12.3956C28.7202 14.8007 29.9228 16.9591 31.9579 18.1308C32.8521 18.655 34.0238 18.9634 35.1338 18.9634C36.3981 18.9634 37.539 18.6242 38.4948 17.9458V18.0383C38.4948 19.4259 38.3098 20.3509 37.8781 20.9985C37.3231 21.831 36.3981 22.2627 35.1647 22.2627C33.2221 22.2627 32.1737 21.2143 31.4028 20.2276L31.2178 19.9809L29.0286 22.016L29.1519 22.201C30.0153 23.5577 32.1429 25.1303 35.288 25.1303C37.724 25.1303 39.7282 23.9894 40.7766 21.9852C41.3008 20.9676 41.5166 19.7034 41.5166 17.8841V6.07444H38.5873V6.90698ZM38.4948 14.5848C37.7548 15.5407 36.6139 16.1266 35.4422 16.1266C33.3454 16.1266 31.7112 14.4923 31.7112 12.4264C31.7112 10.2988 33.2529 8.72623 35.3189 8.72623C36.5214 8.72623 37.724 9.31209 38.4948 10.268V14.5848Z" fill="#313131"/>
<path d="M49.5029 5.82777C48.0536 5.82777 46.9436 6.35196 46.2344 6.84532V0.154175H43.2126V18.7475H46.2344V10.268C46.8511 9.55877 47.8995 8.72624 49.4412 8.72624C50.3354 8.72624 51.1988 9.12709 51.723 9.80545C52.0622 10.2371 52.3705 10.823 52.3705 12.4264V18.7475H55.3923V12.5497C55.3923 10.5146 55.0223 9.18876 54.1589 8.0787C53.018 6.66031 51.353 5.82777 49.5029 5.82777Z" fill="#313131"/>
<path d="M75.0956 6.62946C74.2014 6.10527 73.1222 5.82776 71.9813 5.82776C70.6554 5.82776 69.4837 6.19778 68.4662 6.90698V6.10527H65.5369V24.9453H68.5587V17.9767C69.5145 18.655 70.6554 18.9942 71.9197 18.9942C73.0297 18.9942 74.2323 18.6859 75.0956 18.1617C77.1307 16.9591 78.3333 14.8315 78.3333 12.4264C78.3641 10.0521 77.0999 7.83202 75.0956 6.62946ZM71.6113 16.1266C70.4704 16.1266 69.3295 15.5407 68.5587 14.5848V10.2371C69.3295 9.28125 70.5013 8.69539 71.7346 8.69539C73.8006 8.69539 75.3423 10.2988 75.3423 12.3956C75.3423 14.4923 73.7081 16.1266 71.6113 16.1266Z" fill="#313131"/>
<path d="M85.8263 5.82776C82.2494 5.82776 79.6593 8.60289 79.6593 12.4264C79.6593 16.1882 82.4653 19.025 86.1963 19.025C89.3414 19.025 90.9448 17.36 91.4998 16.6508L91.654 16.4349L89.6498 14.554L89.4648 14.7698C88.7864 15.5407 87.8305 16.3116 86.1963 16.3116C84.377 16.3116 82.8661 14.9857 82.5886 13.2281H91.839L91.8699 12.9814C91.9007 12.7347 91.9007 12.5497 91.9007 12.4264C91.9007 8.66456 89.2797 5.82776 85.8263 5.82776ZM82.897 10.5763C83.3903 9.34292 84.562 8.51038 85.9188 8.51038C87.1213 8.51038 88.293 9.37376 88.7247 10.5763H82.897Z" fill="#313131"/>
<path d="M103.032 6.90698C102.014 6.19778 100.843 5.82776 99.5167 5.82776C98.3759 5.82776 97.2967 6.10527 96.4024 6.62946C94.3982 7.80118 93.1648 10.0213 93.1648 12.3956C93.1648 14.8007 94.3674 16.9591 96.4024 18.1308C97.2967 18.655 98.4684 18.9634 99.5784 18.9634C100.843 18.9634 102.045 18.5933 103.032 17.915V18.7167H105.961V6.07444H103.032V6.90698ZM102.939 14.5848C102.199 15.5407 101.058 16.1266 99.8868 16.1266C97.79 16.1266 96.1558 14.4923 96.1558 12.4264C96.1558 10.2988 97.6975 8.72623 99.7634 8.72623C100.966 8.72623 102.169 9.31209 102.939 10.268V14.5848Z" fill="#313131"/>
<path d="M119.59 0H116.568V18.7475H119.59V0Z" fill="#313131"/>
<path d="M63.841 15.9724C63.4401 16.0957 62.7618 16.1574 62.3301 16.1574C61.5901 16.1574 60.85 15.8799 60.5108 15.479C60.2025 15.109 60.1408 14.5232 60.1408 13.7831V8.78791H63.841V6.07445H60.1408V0.154175H57.119V13.5981C57.119 15.2632 57.489 16.4966 58.2599 17.3291C59.2158 18.4083 60.5725 18.9634 62.2376 18.9634C62.7618 18.9634 63.3476 18.9017 63.841 18.8092V15.9724Z" fill="#313131"/>
<path d="M22.584 5.9511C22.1831 5.85859 21.7515 5.82776 21.3198 5.82776C19.8705 5.82776 18.7605 6.35195 18.0513 6.84531V6.07444H15.0295V18.7475H18.0513V10.268C18.668 9.55876 19.7164 8.72623 21.2581 8.72623C21.7206 8.72623 22.1831 8.84957 22.6148 9.03457L22.584 5.9511Z" fill="#313131"/>
<path d="M115.212 5.9511C114.811 5.85859 114.379 5.82776 113.947 5.82776C112.498 5.82776 111.388 6.35195 110.679 6.84531V6.07444H107.657V18.7475H110.679V10.268C111.296 9.55876 112.344 8.72623 113.886 8.72623C114.348 8.72623 114.811 8.84957 115.243 9.03457L115.212 5.9511Z" fill="#313131"/>
</svg>
