<svg width="30" height="30" viewBox="0 0 30 30" fill="none" xmlns="http://www.w3.org/2000/svg">
<g filter="url(#filter0_i_2_2311)">
<rect width="30" height="30" rx="5" fill="white"/>
</g>
<path d="M23.1058 18.3834C23.0483 16.5799 22.3435 14.8573 21.1204 13.5306C19.8973 12.204 18.2375 11.3619 16.4446 11.1583V11.1111C16.4446 10.8164 16.3275 10.5338 16.1191 10.3254C15.9108 10.1171 15.6281 10 15.3334 10C15.0388 10 14.7561 10.1171 14.5478 10.3254C14.3394 10.5338 14.2223 10.8164 14.2223 11.1111V11.1583C12.4294 11.3619 10.7696 12.204 9.54646 13.5306C8.32334 14.8573 7.61861 16.5799 7.56113 18.3834C7.37493 18.4473 7.21746 18.5753 7.11681 18.7445C7.01615 18.9137 6.97885 19.1131 7.01154 19.3072C7.04422 19.5014 7.14479 19.6776 7.2953 19.8045C7.44581 19.9314 7.63649 20.0007 7.83336 20.0001H22.8335C23.0304 20.0007 23.2211 19.9314 23.3716 19.8045C23.5221 19.6776 23.6227 19.5014 23.6554 19.3072C23.688 19.1131 23.6507 18.9137 23.5501 18.7445C23.4494 18.5753 23.292 18.4473 23.1058 18.3834ZM12.4417 12.7806L12.6695 13.2889C11.2774 13.9203 10.1848 15.0676 9.62227 16.489L9.10282 16.289C9.71896 14.7309 10.9161 13.473 12.4417 12.7806ZM8.90837 16.8695L9.44171 17.0195C9.39449 17.1945 9.35282 17.3723 9.31948 17.5501L8.77226 17.4501C8.80776 17.2544 8.85319 17.0606 8.90837 16.8695ZM14.7779 11.1111C14.7783 10.9639 14.837 10.8229 14.9411 10.7188C15.0452 10.6147 15.1862 10.556 15.3334 10.5556C15.4805 10.5567 15.6211 10.6155 15.7251 10.7195C15.829 10.8234 15.8879 10.9641 15.889 11.1111V11.1195C15.7973 11.1139 15.7057 11.1111 15.6112 11.1111H15.0557C14.9612 11.1111 14.8695 11.1139 14.7779 11.1195V11.1111ZM22.8335 19.4446H7.83336C7.75968 19.4446 7.68903 19.4153 7.63694 19.3632C7.58484 19.3111 7.55558 19.2404 7.55558 19.1668C7.55558 19.0931 7.58484 19.0224 7.63694 18.9704C7.68903 18.9183 7.75968 18.889 7.83336 18.889H22.8335C22.9072 18.889 22.9779 18.9183 23.03 18.9704C23.082 19.0224 23.1113 19.0931 23.1113 19.1668C23.1113 19.2404 23.082 19.3111 23.03 19.3632C22.9779 19.4153 22.9072 19.4446 22.8335 19.4446Z" fill="#62AC43"/>
<defs>
<filter id="filter0_i_2_2311" x="0" y="0" width="30" height="30" filterUnits="userSpaceOnUse" color-interpolation-filters="sRGB">
<feFlood flood-opacity="0" result="BackgroundImageFix"/>
<feBlend mode="normal" in="SourceGraphic" in2="BackgroundImageFix" result="shape"/>
<feColorMatrix in="SourceAlpha" type="matrix" values="0 0 0 0 0 0 0 0 0 0 0 0 0 0 0 0 0 0 127 0" result="hardAlpha"/>
<feOffset/>
<feGaussianBlur stdDeviation="2"/>
<feComposite in2="hardAlpha" operator="arithmetic" k2="-1" k3="1"/>
<feColorMatrix type="matrix" values="0 0 0 0 0 0 0 0 0 0 0 0 0 0 0 0 0 0 0.1 0"/>
<feBlend mode="normal" in2="shape" result="effect1_innerShadow_2_2311"/>
</filter>
</defs>
</svg>
