<svg width="131" height="25" viewBox="0 0 131 25" fill="none" xmlns="http://www.w3.org/2000/svg">
<path d="M11.792 24L7.344 15.264H5.04V24H0.592V1.312H9.456C11.632 1.312 13.3813 1.97333 14.704 3.296C16.0267 4.61867 16.688 6.28267 16.688 8.288C16.688 9.86667 16.2507 11.232 15.376 12.384C14.5227 13.5147 13.3493 14.2933 11.856 14.72L16.72 24H11.792ZM5.04 11.456H8.624C9.73333 11.456 10.5973 11.168 11.216 10.592C11.856 10.016 12.176 9.25867 12.176 8.32C12.176 7.36 11.856 6.592 11.216 6.016C10.5973 5.44 9.73333 5.152 8.624 5.152H5.04V11.456ZM22.9385 14.336H29.9785C29.9358 13.4613 29.6158 12.7253 29.0185 12.128C28.4425 11.5307 27.5892 11.232 26.4585 11.232C25.4345 11.232 24.6025 11.552 23.9625 12.192C23.3225 12.832 22.9812 13.5467 22.9385 14.336ZM30.3945 18.432L33.9465 19.488C33.5198 20.9387 32.6772 22.1333 31.4185 23.072C30.1812 24.0107 28.6345 24.48 26.7785 24.48C24.5172 24.48 22.5972 23.7227 21.0185 22.208C19.4398 20.672 18.6505 18.624 18.6505 16.064C18.6505 13.632 19.4185 11.648 20.9545 10.112C22.4905 8.55467 24.3038 7.776 26.3945 7.776C28.8265 7.776 30.7252 8.50133 32.0905 9.952C33.4772 11.4027 34.1705 13.3973 34.1705 15.936C34.1705 16.1067 34.1598 16.2987 34.1385 16.512C34.1385 16.7253 34.1385 16.896 34.1385 17.024L34.1065 17.248H22.8425C22.8852 18.272 23.2905 19.1253 24.0585 19.808C24.8265 20.4907 25.7438 20.832 26.8105 20.832C28.6238 20.832 29.8185 20.032 30.3945 18.432ZM36.178 19.616L39.826 18.816C39.8687 19.4987 40.1353 20.0747 40.626 20.544C41.138 20.992 41.8313 21.216 42.706 21.216C43.3673 21.216 43.8793 21.0667 44.242 20.768C44.6047 20.4693 44.786 20.096 44.786 19.648C44.786 18.8587 44.2207 18.3467 43.09 18.112L41.01 17.632C39.538 17.312 38.4287 16.736 37.682 15.904C36.9567 15.072 36.594 14.08 36.594 12.928C36.594 11.4987 37.1487 10.2827 38.258 9.28C39.3887 8.27733 40.7967 7.776 42.482 7.776C43.5487 7.776 44.4873 7.936 45.298 8.256C46.1087 8.55467 46.738 8.94933 47.186 9.44C47.634 9.90933 47.9753 10.3893 48.21 10.88C48.4447 11.3707 48.594 11.8507 48.658 12.32L45.106 13.12C45.0207 12.5653 44.7647 12.0747 44.338 11.648C43.9327 11.2213 43.3247 11.008 42.514 11.008C41.9593 11.008 41.4793 11.1573 41.074 11.456C40.69 11.7547 40.498 12.128 40.498 12.576C40.498 13.344 40.978 13.8133 41.938 13.984L44.178 14.464C45.6927 14.784 46.8447 15.3707 47.634 16.224C48.4447 17.0773 48.85 18.1013 48.85 19.296C48.85 20.704 48.3167 21.92 47.25 22.944C46.1833 23.968 44.6793 24.48 42.738 24.48C41.6287 24.48 40.6367 24.32 39.762 24C38.8873 23.6587 38.2047 23.232 37.714 22.72C37.2447 22.1867 36.882 21.664 36.626 21.152C36.3913 20.6187 36.242 20.1067 36.178 19.616ZM56.4335 19.424C57.2228 20.2133 58.1722 20.608 59.2815 20.608C60.3908 20.608 61.3295 20.2133 62.0975 19.424C62.8868 18.6347 63.2815 17.536 63.2815 16.128C63.2815 14.72 62.8868 13.6213 62.0975 12.832C61.3295 12.0427 60.3908 11.648 59.2815 11.648C58.1722 11.648 57.2228 12.0427 56.4335 12.832C55.6655 13.6213 55.2815 14.72 55.2815 16.128C55.2815 17.536 55.6655 18.6347 56.4335 19.424ZM53.3615 10.144C54.9402 8.56533 56.9135 7.776 59.2815 7.776C61.6495 7.776 63.6122 8.56533 65.1695 10.144C66.7482 11.7227 67.5375 13.7173 67.5375 16.128C67.5375 18.5387 66.7482 20.5333 65.1695 22.112C63.6122 23.6907 61.6495 24.48 59.2815 24.48C56.9135 24.48 54.9402 23.6907 53.3615 22.112C51.8042 20.5333 51.0255 18.5387 51.0255 16.128C51.0255 13.7173 51.8042 11.7227 53.3615 10.144ZM80.497 8.192V12.48C80.0703 12.3947 79.6437 12.352 79.217 12.352C78.001 12.352 77.0197 12.704 76.273 13.408C75.5263 14.0907 75.153 15.2213 75.153 16.8V24H70.897V8.256H75.025V10.592C75.793 8.94933 77.2863 8.128 79.505 8.128C79.7397 8.128 80.0703 8.14933 80.497 8.192ZM89.3638 3.552V8.256H92.5318V12.032H89.3638V18.624C89.3638 19.2853 89.5131 19.7547 89.8118 20.032C90.1104 20.3093 90.5798 20.448 91.2198 20.448C91.7958 20.448 92.2331 20.4053 92.5318 20.32V23.84C91.9131 24.096 91.1131 24.224 90.1318 24.224C88.5958 24.224 87.3798 23.7973 86.4838 22.944C85.5878 22.0693 85.1398 20.8747 85.1398 19.36V12.032H82.2918V8.256H83.0918C83.8811 8.256 84.4784 8.032 84.8838 7.584C85.3104 7.11467 85.5238 6.50667 85.5238 5.76V3.552H89.3638ZM96.6933 23.392C96.1173 22.816 95.8293 22.1227 95.8293 21.312C95.8293 20.5013 96.1173 19.8187 96.6933 19.264C97.2693 18.688 97.9519 18.4 98.7413 18.4C99.5519 18.4 100.245 18.688 100.821 19.264C101.397 19.8187 101.685 20.5013 101.685 21.312C101.685 22.1227 101.397 22.816 100.821 23.392C100.245 23.9467 99.5519 24.224 98.7413 24.224C97.9519 24.224 97.2693 23.9467 96.6933 23.392ZM110.247 24H105.991V8.256H110.247V24ZM105.479 3.104C105.479 2.37867 105.735 1.76 106.247 1.248C106.759 0.714665 107.377 0.447998 108.103 0.447998C108.828 0.447998 109.447 0.703999 109.959 1.216C110.471 1.728 110.727 2.35733 110.727 3.104C110.727 3.808 110.471 4.416 109.959 4.928C109.447 5.44 108.828 5.696 108.103 5.696C107.377 5.696 106.759 5.44 106.247 4.928C105.735 4.416 105.479 3.808 105.479 3.104ZM119.027 19.424C119.817 20.2133 120.766 20.608 121.875 20.608C122.985 20.608 123.923 20.2133 124.691 19.424C125.481 18.6347 125.875 17.536 125.875 16.128C125.875 14.72 125.481 13.6213 124.691 12.832C123.923 12.0427 122.985 11.648 121.875 11.648C120.766 11.648 119.817 12.0427 119.027 12.832C118.259 13.6213 117.875 14.72 117.875 16.128C117.875 17.536 118.259 18.6347 119.027 19.424ZM115.955 10.144C117.534 8.56533 119.507 7.776 121.875 7.776C124.243 7.776 126.206 8.56533 127.763 10.144C129.342 11.7227 130.131 13.7173 130.131 16.128C130.131 18.5387 129.342 20.5333 127.763 22.112C126.206 23.6907 124.243 24.48 121.875 24.48C119.507 24.48 117.534 23.6907 115.955 22.112C114.398 20.5333 113.619 18.5387 113.619 16.128C113.619 13.7173 114.398 11.7227 115.955 10.144Z" fill="#313131"/>
</svg>
