<svg width="269" height="277" viewBox="0 0 269 277" fill="none" xmlns="http://www.w3.org/2000/svg">
<path d="M249.5 60H148.5C132.208 60 119 46.7924 119 30.5V30.5C119 14.2076 132.208 1 148.5 1H176.5C202.181 1 223 21.8188 223 47.5V47.5C223 73.1812 202.181 94 176.5 94H92C79.5736 94 69.5 83.9264 69.5 71.5V71.5C69.5 59.0736 79.5736 49 92 49H152.75C184.092 49 209.5 74.4078 209.5 105.75V110C209.5 138.995 185.995 162.5 157 162.5H147.75C123.864 162.5 104.5 143.136 104.5 119.25V119.25C104.5 95.3637 85.1363 76 61.25 76H0" stroke="#2D2D2D"/>
<g filter="url(#filter0_dddddd_2_2274)">
<rect x="126.5" y="34.5" width="62" height="62" rx="31" fill="#FEFEFE"/>
</g>
<path d="M157.5 53.5V78.5M157.5 78.5L167.5 69M157.5 78.5L147.5 69" stroke="#2D2D2D"/>
<defs>
<filter id="filter0_dddddd_2_2274" x="46.5" y="33.2037" width="222" height="243.296" filterUnits="userSpaceOnUse" color-interpolation-filters="sRGB">
<feFlood flood-opacity="0" result="BackgroundImageFix"/>
<feColorMatrix in="SourceAlpha" type="matrix" values="0 0 0 0 0 0 0 0 0 0 0 0 0 0 0 0 0 0 127 0" result="hardAlpha"/>
<feOffset dy="1.85185"/>
<feGaussianBlur stdDeviation="1.57407"/>
<feColorMatrix type="matrix" values="0 0 0 0 0.219608 0 0 0 0 0.219608 0 0 0 0 0.219608 0 0 0 0.0240741 0"/>
<feBlend mode="normal" in2="BackgroundImageFix" result="effect1_dropShadow_2_2274"/>
<feColorMatrix in="SourceAlpha" type="matrix" values="0 0 0 0 0 0 0 0 0 0 0 0 0 0 0 0 0 0 127 0" result="hardAlpha"/>
<feOffset dy="8.14815"/>
<feGaussianBlur stdDeviation="3.25926"/>
<feColorMatrix type="matrix" values="0 0 0 0 0.219608 0 0 0 0 0.219608 0 0 0 0 0.219608 0 0 0 0.0392593 0"/>
<feBlend mode="normal" in2="effect1_dropShadow_2_2274" result="effect2_dropShadow_2_2274"/>
<feColorMatrix in="SourceAlpha" type="matrix" values="0 0 0 0 0 0 0 0 0 0 0 0 0 0 0 0 0 0 127 0" result="hardAlpha"/>
<feOffset dy="20"/>
<feGaussianBlur stdDeviation="6.5"/>
<feColorMatrix type="matrix" values="0 0 0 0 0.219608 0 0 0 0 0.219608 0 0 0 0 0.219608 0 0 0 0.05 0"/>
<feBlend mode="normal" in2="effect2_dropShadow_2_2274" result="effect3_dropShadow_2_2274"/>
<feColorMatrix in="SourceAlpha" type="matrix" values="0 0 0 0 0 0 0 0 0 0 0 0 0 0 0 0 0 0 127 0" result="hardAlpha"/>
<feOffset dy="38.5185"/>
<feGaussianBlur stdDeviation="12.7407"/>
<feColorMatrix type="matrix" values="0 0 0 0 0.219608 0 0 0 0 0.219608 0 0 0 0 0.219608 0 0 0 0.0607407 0"/>
<feBlend mode="normal" in2="effect3_dropShadow_2_2274" result="effect4_dropShadow_2_2274"/>
<feColorMatrix in="SourceAlpha" type="matrix" values="0 0 0 0 0 0 0 0 0 0 0 0 0 0 0 0 0 0 127 0" result="hardAlpha"/>
<feOffset dy="64.8148"/>
<feGaussianBlur stdDeviation="23.4259"/>
<feColorMatrix type="matrix" values="0 0 0 0 0.219608 0 0 0 0 0.219608 0 0 0 0 0.219608 0 0 0 0.0759259 0"/>
<feBlend mode="normal" in2="effect4_dropShadow_2_2274" result="effect5_dropShadow_2_2274"/>
<feColorMatrix in="SourceAlpha" type="matrix" values="0 0 0 0 0 0 0 0 0 0 0 0 0 0 0 0 0 0 127 0" result="hardAlpha"/>
<feOffset dy="100"/>
<feGaussianBlur stdDeviation="40"/>
<feColorMatrix type="matrix" values="0 0 0 0 0.219608 0 0 0 0 0.219608 0 0 0 0 0.219608 0 0 0 0.1 0"/>
<feBlend mode="normal" in2="effect5_dropShadow_2_2274" result="effect6_dropShadow_2_2274"/>
<feBlend mode="normal" in="SourceGraphic" in2="effect6_dropShadow_2_2274" result="shape"/>
</filter>
</defs>
</svg>
