<svg width="30" height="30" viewBox="0 0 30 30" fill="none" xmlns="http://www.w3.org/2000/svg">
<g filter="url(#filter0_i_2_2299)">
<rect width="30" height="30" rx="5" fill="white"/>
</g>
<path d="M22.5644 12.8865C22.473 12.9779 22.349 13.0292 22.2197 13.0292C22.0904 13.0292 21.9664 12.9779 21.8749 12.8865C20.0109 11.0232 17.4833 9.97654 14.8477 9.97654C12.2121 9.97654 9.68447 11.0232 7.82049 12.8865C7.728 12.9727 7.60568 13.0196 7.47928 13.0174C7.35288 13.0151 7.23229 12.9639 7.1429 12.8746C7.05351 12.7852 7.00231 12.6646 7.00008 12.5382C6.99785 12.4118 7.04476 12.2894 7.13094 12.197C9.17802 10.15 11.9544 9 14.8493 9C17.7443 9 20.5206 10.15 22.5677 12.197C22.6586 12.2889 22.7094 12.4131 22.7088 12.5424C22.7082 12.6717 22.6562 12.7955 22.5644 12.8865Z" fill="#62AC43"/>
<path d="M20.5381 14.2203C20.6243 14.3128 20.6712 14.4351 20.669 14.5615C20.6667 14.6879 20.6155 14.8085 20.5261 14.8979C20.4367 14.9873 20.3162 15.0385 20.1898 15.0407C20.0634 15.0429 19.941 14.996 19.8485 14.9098C19.1921 14.2521 18.4123 13.7303 17.5539 13.3742C16.6955 13.0182 15.7754 12.8349 14.8461 12.8349C13.9168 12.8349 12.9966 13.0182 12.1382 13.3742C11.2798 13.7303 10.5001 14.2521 9.8436 14.9098C9.75046 14.99 9.6305 15.032 9.50769 15.0276C9.38489 15.0231 9.26829 14.9725 9.18119 14.8858C9.09409 14.7991 9.04292 14.6828 9.03788 14.56C9.03285 14.4372 9.07434 14.317 9.15405 14.2235C9.90113 13.4753 10.7884 12.8817 11.7651 12.4767C12.7418 12.0717 13.7887 11.8633 14.8461 11.8633C15.9034 11.8633 16.9504 12.0717 17.9271 12.4767C18.9038 12.8817 19.791 13.4753 20.5381 14.2235V14.2203Z" fill="#62AC43"/>
<path d="M18.5183 16.2433C18.6045 16.3357 18.6514 16.4581 18.6492 16.5845C18.6469 16.7109 18.5957 16.8315 18.5063 16.9208C18.4169 17.0102 18.2963 17.0614 18.17 17.0637C18.0436 17.0659 17.9212 17.019 17.8287 16.9328C17.0365 16.1453 15.9648 15.7032 14.8477 15.7032C13.7307 15.7032 12.659 16.1453 11.8668 16.9328C11.7743 17.019 11.6519 17.0659 11.5255 17.0637C11.3991 17.0614 11.2786 17.0102 11.1892 16.9208C11.0998 16.8315 11.0486 16.7109 11.0463 16.5845C11.0441 16.4581 11.091 16.3357 11.1772 16.2433C11.6591 15.7604 12.2315 15.3773 12.8616 15.1159C13.4917 14.8545 14.1672 14.72 14.8494 14.72C15.5316 14.72 16.207 14.8545 16.8372 15.1159C17.4673 15.3773 18.0397 15.7604 18.5215 16.2433H18.5183Z" fill="#62AC43"/>
<path d="M14.8461 17.5801C14.5071 17.5801 14.1757 17.6806 13.8938 17.869C13.6119 18.0573 13.3922 18.325 13.2625 18.6382C13.1327 18.9514 13.0988 19.2961 13.1649 19.6286C13.2311 19.9611 13.3943 20.2665 13.634 20.5062C13.8738 20.746 14.1792 20.9092 14.5117 20.9754C14.8442 21.0415 15.1888 21.0076 15.5021 20.8778C15.8153 20.7481 16.083 20.5284 16.2713 20.2465C16.4597 19.9646 16.5602 19.6332 16.5602 19.2942C16.5602 18.8396 16.3796 18.4036 16.0582 18.0821C15.7367 17.7607 15.3007 17.5801 14.8461 17.5801ZM14.8461 20.0325C14.7001 20.0325 14.5573 19.9892 14.4359 19.9081C14.3145 19.827 14.2198 19.7117 14.164 19.5767C14.1081 19.4418 14.0935 19.2934 14.122 19.1501C14.1504 19.0069 14.2208 18.8754 14.324 18.7721C14.4273 18.6688 14.5588 18.5985 14.7021 18.57C14.8453 18.5416 14.9937 18.5562 15.1286 18.6121C15.2636 18.6679 15.3789 18.7626 15.46 18.884C15.5411 19.0054 15.5844 19.1482 15.5844 19.2942C15.5844 19.49 15.5066 19.6778 15.3682 19.8163C15.2297 19.9547 15.0419 20.0325 14.8461 20.0325Z" fill="#62AC43"/>
<defs>
<filter id="filter0_i_2_2299" x="0" y="0" width="30" height="30" filterUnits="userSpaceOnUse" color-interpolation-filters="sRGB">
<feFlood flood-opacity="0" result="BackgroundImageFix"/>
<feBlend mode="normal" in="SourceGraphic" in2="BackgroundImageFix" result="shape"/>
<feColorMatrix in="SourceAlpha" type="matrix" values="0 0 0 0 0 0 0 0 0 0 0 0 0 0 0 0 0 0 127 0" result="hardAlpha"/>
<feOffset/>
<feGaussianBlur stdDeviation="2"/>
<feComposite in2="hardAlpha" operator="arithmetic" k2="-1" k3="1"/>
<feColorMatrix type="matrix" values="0 0 0 0 0 0 0 0 0 0 0 0 0 0 0 0 0 0 0.1 0"/>
<feBlend mode="normal" in2="shape" result="effect1_innerShadow_2_2299"/>
</filter>
</defs>
</svg>
